<?xml version="1.0" standalone="no"?><!DOCTYPE svg PUBLIC "-//W3C//DTD SVG 1.1//EN" "http://www.w3.org/Graphics/SVG/1.1/DTD/svg11.dtd"><svg t="1748247301455" class="icon" viewBox="0 0 2116 1024" version="1.1" xmlns="http://www.w3.org/2000/svg" p-id="6827" xmlns:xlink="http://www.w3.org/1999/xlink" width="413.28125" height="200"><path d="M594.261333 354.9184a295.697067 295.697067 0 0 1-57.2416 70.894933c9.898667-3.447467 16.384-5.802667 22.050134-7.8848 9.216-3.413333 16.4864-5.9392 33.0752-11.400533 9.0112-2.798933 21.845333-6.9632 30.6176-5.461333 15.1552 2.423467 25.156267 6.826667 29.7984 12.288 5.802667 7.168 0.9216 21.777067-4.5056 28.2624l-9.216 10.683733c-23.3472 26.965333-45.397333 52.497067-78.506667 78.677333-10.820267 6.075733-21.7088 13.038933-32.187733 19.729067-12.6976 8.192-25.873067 16.452267-38.570667 23.278933-2.730667 1.4336-31.744 13.892267-62.190933 26.624 9.181867 1.194667 17.681067 5.461333 24.200533 12.151467 8.977067 10.752 3.9936 34.816-1.8432 44.373333-4.9152 10.513067-8.021333 21.8112-9.1136 33.416534 19.5584-6.9632 26.999467-12.117333 37.819733-25.053867 13.9264-12.970667 32.5632-9.216 41.540267-7.4752 10.581333 2.013867 20.650667 6.382933 29.354667 12.834133a26.487467 26.487467 0 0 1 7.611733 21.947734 23.483733 23.483733 0 0 1-15.086933 17.544533 98.304 98.304 0 0 1-38.4 10.922667 160.8704 160.8704 0 0 0-50.2784 18.0224c-7.645867 3.4816-15.598933 7.441067-24.4736 10.922666a25.941333 25.941333 0 0 0-3.140267 15.496534c0.9216 34.850133 2.730667 100.6592 0.9216 149.981866-0.1024 5.597867 0.8192 11.1616 2.730667 16.452267a32.085333 32.085333 0 0 1-2.048 28.398933c-5.768533 9.796267-15.018667 16.964267-25.838934 20.002134a19.1488 19.1488 0 0 1-16.759466-4.676267c-11.400533-10.171733-31.982933-21.981867-53.589334-34.4064-27.511467-15.803733-58.641067-33.655467-77.038933-51.985067l-11.127467-10.922666 15.2576 3.310933c9.8304 2.1504 38.2976 12.1856 65.877334 21.9136 19.797333 7.031467 40.174933 14.199467 50.619733 17.339733 1.2288-23.2448 1.2288-48.196267 1.2288-74.513066 0-23.108267 0-47.035733 0.9216-70.212267a210.261333 210.261333 0 0 1-27.716267 12.117333c-9.557333 3.413333-18.875733 7.509333-27.818666 12.288-16.9984 8.874667-34.474667 16.725333-52.4288 23.4496-15.496533 6.144-29.661867 3.072-44.373334-11.332266-14.677333-14.4384-26.624-27.101867-23.722666-36.795734a12.424533 12.424533 0 0 1 11.093333-8.021333 1083.221333 1083.221333 0 0 0 51.6096-11.8784l10.24-2.696533c31.266133-7.850667 78.336-20.002133 114.039467-38.365867 7.304533-20.2752 13.4144-40.96 18.3296-61.952-1.8432 0.273067-3.857067 0.682667-6.007467 1.092267-21.845333 4.096-40.7552 7.031467-50.176 1.536-16.2816-3.754667-17.2032-23.278933-17.92-37.614934a75.1616 75.1616 0 0 0-1.194667-12.6976l-1.4336-5.461333h5.802667c9.659733 0.170667 19.285333 1.4336 28.672 3.6864l2.901333 0.6144c113.595733-60.177067 184.32-111.991467 210.3296-154.112-42.461867 8.635733-149.742933 48.264533-185.309866 70.826667a1143.296 1143.296 0 0 0-176.571734 105.642666c-14.882133 10.376533-31.300267 21.845333-50.858666 35.089067l-5.802667 3.959467c-28.672 19.3536-44.475733 29.969067-47.377067 73.1136-1.1264 17.544533-11.741867 29.218133-20.411733 36.9664-8.704 7.714133-16.4864 10.922667-24.2688 9.557333-7.7824-1.297067-14.4384-7.099733-20.445867-17.749333a78.267733 78.267733 0 0 1-9.1136-61.474134c4.471467-17.134933 8.430933-29.3888 12.288-41.335466 6.280533-18.944 11.5712-38.229333 15.803734-57.7536l1.604266-7.714134 14.677334 13.482667c19.217067 17.6128 23.278933 21.367467 32.904533 45.021867 131.515733-95.061333 238.830933-157.457067 367.172267-213.538134a223.8464 223.8464 0 0 0-21.6064-15.291733l-7.099734-4.676267a197.495467 197.495467 0 0 1-11.707733-7.850666c-11.6736-8.0896-29.354667-20.48-37.444267-18.397867-6.656 1.6384-22.698667 23.2448-34.372266 39.048533-6.109867 8.260267-11.776 16.042667-17.2032 22.391467l-0.887467 1.2288-1.467733 0.341333c-4.5056 0.9216-25.4976 1.706667-31.880534-4.573866a7.031467 7.031467 0 0 1-2.116266-6.587734v-1.262933l0.9216-0.9216c0.955733-1.092267 24.541867-26.043733 33.723733-35.089067 27.989333-27.579733 25.6-33.9968 19.012267-42.9056a32.256 32.256 0 0 0-15.598934-8.021333c-8.704-2.798933-18.397867-6.007467-19.524266-15.837867l-0.648534-5.461333h5.393067c3.857067 0.136533 12.1856-0.512 19.524267-1.058133 5.0176-0.375467 9.6256-0.785067 12.288-0.785067 5.802667-0.136533 11.1616-0.648533 15.7696-1.092267 4.096-0.477867 8.2944-0.682667 12.458666-0.648533 8.192-19.182933 15.530667-39.355733 22.596267-58.538667 7.0656-19.182933 14.4384-38.980267 22.493867-58.231466l-0.546134-0.341334a27.2384 27.2384 0 0 1-6.144 3.037867l-4.846933 3.413333c-10.6496 7.3728-20.957867 15.837867-30.958933 23.825067-7.68 6.144-15.394133 12.288-23.278934 18.193067a21.7088 21.7088 0 0 1-20.3776 1.979733c-12.424533-3.959467-25.1904-15.018667-28.637866-25.156267a11.844267 11.844267 0 0 1 0.443733-9.762133c2.9696-5.2224 9.762133-6.587733 17.066667-8.055467 6.2464-0.648533 12.253867-2.730667 17.544533-6.144 9.3184-7.8848 15.803733-13.1072 21.1968-17.476266a333.2096 333.2096 0 0 0 34.4064-31.573334c11.6736-11.810133 21.674667-25.156267 29.696-39.765333 2.321067-3.822933 4.471467-7.441067 6.7584-10.9568 3.822933-8.533333 6.724267-17.5104 8.567467-26.692267a162.133333 162.133333 0 0 1 3.242666-12.356266c1.6384-6.178133 2.730667-12.424533 8.669867-13.4144 5.9392-0.989867 19.387733-1.4336 25.429333 3.8912 6.075733 5.3248 14.609067 16.554667 13.073067 25.975466a165.000533 165.000533 0 0 0-1.1264 7.953067c-0.853333 13.312-5.12 26.2144-12.356267 37.376a181.930667 181.930667 0 0 1-25.8048 30.344533 234.2912 234.2912 0 0 0-16.622933 17.646934c2.2528-0.375467 3.8912-0.785067 5.393067-0.785067 2.491733-0.341333 4.9152-0.648533 10.308266-1.570133l5.4272-0.887467v13.550933c0.750933 6.485333 0.2048 13.1072-1.570133 19.387734a449.877333 449.877333 0 0 0-14.677333 65.809066c-3.140267 22.869333-8.055467 45.4656-14.677334 67.584l14.370134 8.942934a185.1392 185.1392 0 0 0 0-32.1536c-0.9216-20.821333-1.2288-32.8704 3.208533-37.751467l2.321067-2.525867 3.003733 1.604267c31.505067 16.213333 35.157333 63.965867 35.157333 80.418133 3.618133-0.512 7.236267-1.2288 10.786134-2.1504C552.8576 336.554667 564.565333 318.907733 583.918933 256v-0.750933c-20.821333-11.502933-29.354667-16.896-29.354666-25.156267 0-8.2944 9.796267-14.267733 28.603733-24.746667 14.336-9.284267 32.0512-11.605333 48.264533-6.280533 11.8784 3.720533 19.182933 8.8064 22.254934 15.701333a20.3776 20.3776 0 0 1-0.682667 17.032534c-12.663467 28.706133-37.137067 82.944-58.7776 123.153066zM212.3776 467.490133l-1.6384-2.2528c-11.264-14.7456-14.336-82.944-13.1072-91.9552 0.750933-5.8368 1.8432-11.332267 2.9696-16.827733l1.9456-10.1376 9.8304-1.911467 2.1504 2.184534c1.399467 1.706667 2.935467 3.345067 4.437333 4.983466 3.822933 3.754667 7.0656 8.021333 9.6256 12.731734 14.677333 30.3104 27.4432 58.333867 38.912 85.538133 5.9392 13.789867-0.477867 24.712533-8.533333 33.143467h0.580267l-4.1984 3.242666-1.092267 1.024-1.6384 1.501867H252.245333l-1.706666 1.365333-1.774934-1.911466c-22.528-3.6864-25.531733-6.7584-36.352-20.718934zM261.051733 329.728l-1.024-2.2528a146.500267 146.500267 0 0 1-11.844266-42.496c-0.273067-3.515733 3.345067-5.632 4.369066-6.2464 1.024-0.6144 10.3424-5.973333 14.677334-3.072l5.461333 3.549867c10.205867 5.632 19.3536 13.038933 26.965333 21.947733 8.533333 12.561067 15.496533 26.112 20.821334 40.3456l1.911466 4.7104c1.877333 6.587733 1.092267 13.653333-2.218666 19.626667-4.266667 9.4208-13.243733 20.8896-22.766934 23.893333a17.408 17.408 0 0 1-5.12 0.7168c-4.096 0-8.192-1.024-11.844266-2.9696-11.502933-6.724267-12.356267-16.861867-13.448534-28.672a97.28 97.28 0 0 0-5.9392-29.0816z m523.5712 287.1296c-15.940267 30.1056-31.0272 58.504533-68.471466 77.687467-5.461333 2.56-11.3664 3.9936-17.408 4.164266a15.598933 15.598933 0 0 1-7.611734-1.570133 22.7328 22.7328 0 0 1-8.533333-21.947733 79.872 79.872 0 0 0 0-15.086934c-0.682667-10.581333-1.399467-21.504 2.013867-27.9552a330.717867 330.717867 0 0 0 21.060266-58.094933c2.048-8.2944 5.256533-20.2752 8.533334-32.904533 4.881067-18.295467 10.24-39.082667 13.073066-51.780267 2.218667-9.9328 4.096-24.234667-4.846933-33.792-5.4272-5.700267-11.605333-12.561067-10.820267-20.343467 0.682667-4.608 3.413333-8.635733 7.406934-10.922666a57.344 57.344 0 0 1 34.542933-8.021334c24.746667 2.184533 43.178667 14.779733 50.551467 34.5088 6.894933 18.432-1.160533 37.956267-20.957867 50.926934-39.0144 30.890667-48.674133 66.6624-59.938133 108.066133-1.501867 5.666133-3.072 11.400533-4.744534 17.271467 20.3776-8.977067 31.505067-25.531733 43.246934-43.008 8.942933-13.346133 18.193067-27.170133 31.982933-37.137067l3.754667-2.730667 2.628266 3.8912c3.618133 4.778667 8.021333 9.0112 12.970667 12.424534 2.628267 2.1504 5.495467 4.334933 8.055467 6.690133 2.389333-9.966933 6.690133-29.047467 11.400533-50.210133 13.380267-60.416 33.553067-151.04 51.746133-216.200534-13.755733 6.144-28.091733 10.922667-42.8032 14.301867a333.892267 333.892267 0 0 0-33.5872 10.410667 32.768 32.768 0 0 1-23.722666 0c-6.8608-3.413333-12.629333-13.141333-17.3056-20.992a65.911467 65.911467 0 0 0-3.925334-6.2464l-3.3792-3.7888 4.096-3.003734c3.754667-2.8672 10.786133-3.242667 21.572267-3.8912a176.469333 176.469333 0 0 0 43.793067-7.168c29.115733-9.216 29.218133-9.216 35.703466-14.677333a231.424 231.424 0 0 1 25.3952-18.090667c13.243733-7.168 28.501333-9.454933 43.246934-6.5536 7.0656 1.194667 12.458667 12.5952 12.458666 18.090667 0.1024 10.786133-2.696533 21.4016-8.0896 30.685867a75.810133 75.810133 0 0 0-6.382933 15.5648 1281.809067 1281.809067 0 0 1-26.999467 88.610133c-18.0224 52.053333-24.2688 106.2912-28.0576 152.439467-1.092267 12.970667-1.092267 25.873067-1.092266 38.365866 0.341333 16.964267-0.512 33.8944-2.389334 50.722134a30.037333 30.037333 0 0 1-11.332266 17.169066c-5.461333 4.027733-11.195733 7.543467-17.237334 10.581334a253.952 253.952 0 0 0-10.786133 5.905066l-3.584 2.048-2.389333-3.345066a265.591467 265.591467 0 0 1-18.6368-34.542934c-5.393067-10.8544-10.786133-22.050133-16.213334-31.300266-2.594133 4.983467-5.393067 9.966933-7.9872 14.779733z m523.605334-394.205867c-6.212267 12.970667-13.755733 25.258667-22.528 36.5568-41.0624 56.797867-68.608 96.6656-82.261334 118.5792-4.1984 7.0656-9.796267 14.916267-15.735466 23.552-13.038933 18.875733-29.354667 42.496-37.853867 62.737067-33.109333 73.557333-43.042133 165.6832-46.421333 198.5536a33.8944 33.8944 0 0 1 6.144 13.482667c1.365333 10.171733 0.682667 20.48-1.911467 30.378666-5.290667 22.971733-11.264 46.08-17.032533 68.437334l-4.027734 15.496533c-4.5056 17.544533-8.977067 32.290133-13.346133 46.4896-4.7104 15.394133-9.557333 31.300267-14.4384 50.756267l-0.6144 3.345066c-4.3008 22.3232-10.376533 56.046933-36.727467 51.746134-20.2752-3.2768-27.0336-25.941333-32.426666-46.045867a133.393067 133.393067 0 0 0-8.977067-25.4976 12.458667 12.458667 0 0 1 0.375467-9.898667c0.375467-1.262933 0.887467-2.696533 1.194666-4.3008l1.570134-7.9872 5.9392 5.461334c4.983467 4.266667 10.4448 7.953067 16.213333 10.990933 5.12 2.901333 10.103467 6.144 14.848 9.693867 8.3968-33.860267 15.701333-64.853333 22.4256-93.866667 6.7584-29.013333 13.755733-58.845867 21.947733-92.16-44.407467 22.9376-81.92 45.056-117.623466 75.298133a26.8288 26.8288 0 0 0 9.489066 9.352534c10.786133 6.826667 18.295467 17.8176 20.753067 30.446933 1.024 6.7584-0.955733 13.653333-5.393067 18.773333-3.413333 3.925333-19.729067 10.6496-29.3888 12.9024-16.213333 3.754667-46.011733-1.911467-47.240533-2.184533l-8.430933-1.604267 6.0416-6.144c13.1072-13.482667 16.725333-20.002133 16.213333-28.16-4.096 2.389333-7.9872 5.12-11.605333 8.192-7.953067 6.382933-16.861867 13.653333-30.0032 13.653334-4.5056 19.694933-7.509333 39.7312-8.874667 59.904 0.2048 7.850667 2.628267 15.428267 6.997333 21.9136 4.471467 6.2464 6.519467 18.773333 7.441067 28.8768 5.12 5.3248 6.144 13.380267 2.8672 22.971733-3.754667 9.557333-8.704 18.500267-14.779733 26.624l-3.7888 5.5296a8.3968 8.3968 0 0 1-6.280534 3.1744 12.458667 12.458667 0 0 1-2.2528 0 9.8304 9.8304 0 0 1-6.485333-1.979733 95.061333 95.061333 0 0 0-14.336-9.898667c-10.820267-6.894933-22.528-13.858133-27.0336-28.808533-13.073067-43.758933-28.740267-77.312-49.322667-105.540267a14.062933 14.062933 0 0 1-2.013866-7.0656c-0.136533-1.297067-0.341333-3.106133-0.785067-5.461333l-1.365333-7.816534 7.338666 2.628267c1.262933 0.512 2.56 0.9216 3.857067 1.262933 10.5472-13.5168 30.242133-38.0928 52.9408-66.321066 40.823467-51.029333 91.613867-114.312533 103.0144-131.549867 3.584-6.826667 5.700267-14.267733 6.2464-21.947733 0.7168-4.437333 1.4336-9.045333 2.56-13.380267 0.341333-1.194667 0.580267-2.525867 0.9216-3.822933 1.297067-6.109867 2.798933-12.970667 7.953067-15.633067 5.973333-3.140267 17.237333 0 22.6304 4.778667 8.362667 7.168 15.633067 15.530667 21.674666 24.814933a38.775467 38.775467 0 0 1-4.778666 53.248c-23.4496 22.801067-170.734933 152.064-177.015467 157.559467a266.683733 266.683733 0 0 1-21.162667 16.452266 18.090667 18.090667 0 0 1 5.0176 3.4816l10.308267 10.990934 5.393067 5.461333c18.875733 8.430933 26.9312 11.776 30.378666 13.1072 3.413333-7.168 11.264-29.422933 18.363734-50.653867l-3.549867-1.877333-3.037867-1.6384 0.682667-3.413333c0.341333-0.648533 0.341333-1.365333 0.341333-1.9456a7.850667 7.850667 0 0 1 2.730667-6.109867c12.151467-8.9088 24.234667-17.954133 36.4544-27.067733 39.867733-29.969067 81.1008-60.859733 124.7232-87.722667 6.314667-4.061867 12.117333-8.874667 17.3056-14.336 7.953067-8.465067 17.3056-15.4624 27.613867-20.753067 6.792533-3.345067 14.404267-4.676267 21.9136-3.754666v-1.501867c0.8192-20.48 2.048-51.131733 8.123733-75.298133 18.090667-72.669867 70.929067-182.408533 127.8976-266.581334 5.358933-7.816533 12.526933-17.2032 20.206933-27.067733 14.165333-18.6368 30.378667-39.662933 35.771734-53.1456 3.072-7.953067 3.857067-18.5344 1.8432-20.8896-1.979733-2.389333-11.9808-3.584-19.797334-2.389333-30.788267 4.744533-53.691733 19.7632-80.725333 38.843733-38.673067 27.4432-70.075733 47.104-121.582933 48.9472a45.738667 45.738667 0 0 1-24.644267-6.417067 15.4624 15.4624 0 0 1-8.260267-15.4624c0.6144-2.286933 2.8672-7.68 12.219734-8.704 34.474667-3.7888 59.323733-16.622933 85.674666-30.208a480.938667 480.938667 0 0 1 39.253334-18.773333c10.103467-4.437333 19.968-9.4208 29.525333-15.018667 11.0592-6.5536 22.596267-12.288 34.5088-17.066666 4.573867-1.8432 9.045333-3.925333 13.4144-6.280534 9.079467-5.495467 19.182933-9.1136 29.661867-10.615466a57.480533 57.480533 0 0 1 50.688 25.088c9.079467 11.6736 11.434667 27.306667 6.212266 41.233066z m-360.106667 683.690667c0.136533 2.491733 0.170667 4.949333 0.785067 7.099733v1.911467l-1.160534 1.536a25.9072 25.9072 0 0 1-17.92 11.537067h-1.774933a20.0704 20.0704 0 0 1-13.653333-5.495467 183.6032 183.6032 0 0 1-29.422934-32.221867c-4.061867-6.2464-1.297067-16.145067 2.2528-25.873066 0.682667-1.706667 2.048-2.9696 3.7888-3.4816a25.224533 25.224533 0 0 1 17.2032 1.365333c12.765867 6.997333 24.576 15.598933 35.2256 25.6 4.266667 4.4032 4.7104 11.298133 4.7104 17.988267z m41.642667-401.476267c-12.629333-9.591467-12.117333-54.1696-10.171734-60.347733 1.1264-3.447467 2.525867-6.826667 3.9936-10.1376l1.467734-3.515733-3.857067 1.160533 15.633067-18.705067c4.846933-5.870933 9.9328-12.117333 15.36-18.3296a13.0048 13.0048 0 0 0 3.9936-8.157866c-0.238933-1.6384-1.6384-3.345067-4.164267-5.12a7.7824 7.7824 0 0 1-1.911467-1.9456c-1.160533-1.6384-2.4576-3.1744-3.754666-4.778667-6.212267-7.236267-14.5408-17.646933-6.212267-29.149867 10.0352-13.824 26.692267-6.212267 36.693333-1.6384 10.001067 4.1984 19.285333 10.103467 27.374934 17.408 5.188267 4.949333 14.370133 16.6912 11.946666 25.4976a38.126933 38.126933 0 0 1-21.060266 21.947734c-13.994667 5.3248-28.2624 9.898667-42.7008 13.755733-5.393067 1.570133-10.820267 3.106133-16.213334 4.778667l0.648534 0.477866c1.2288 0.9216 2.6624 1.809067 4.061866 2.730667 3.4816 1.979733 6.621867 4.5056 9.284267 7.509333 13.038933 17.169067 24.3712 33.0752 35.157333 48.64 8.772267 12.629333-6.3488 23.552-12.834133 28.228267l-1.1264 0.8192h-7.953067c-18.500267 0-21.777067-2.082133-31.880533-9.796267l-1.774933-1.3312z m310.272 102.673067l69.700266 0.170667c-0.4096 45.397333-1.774933 98.2016-3.072 131.584-1.672533 49.220267-21.6064 67.242667-64.853333 68.130133-19.114667 0.477867-42.257067 0.477867-54.6816 0.477867a1212.757333 1212.757333 0 0 0-8.9088-63.624534c16.008533 0.9216 31.607467 1.365333 45.806933 1.365334 16.008533 0 21.777067-5.870933 22.698667-23.04 0.887467-15.36 1.809067-41.915733 1.809067-55.466667h-72.0896l12.458666-161.553067h61.8496v-46.011733h-73.386666V400.042667h133.8368v165.102933h-67.584l-3.584 42.427733z m71.611733 132.232533c37.819733-0.477867 72.840533-1.365333 107.6224-2.2528V701.44h-96.0512v-143.4624h96.256v-24.405333h-83.626667v-133.12h229.546667v133.12h-83.626667v24.405333h96.256v143.4624h-19.0464c15.086933 33.9968 26.624 60.893867 39.560534 94.276267l-57.412267 18.5344c-2.628267-6.792533-4.846933-13.1072-7.0656-19.831467-74.308267 2.2528-140.117333 5.358933-215.278933 9.898667l-7.168-64.512z m189.508267-26.624l42.666666-11.4688h-62.293333v34.304c9.352533 0 19.114667-0.477867 28.4672-0.9216-2.628267-7.031467-5.768533-14.267733-8.874667-21.9136z m16.213333-102.843733h-35.6352v38.741333h35.6352V610.304z m-120.490667-128.170667l106.7008 0.1024v-30.208h-106.734933v30.1056z m-13.380266 166.912h35.566933V610.304H1443.498667v38.741333z m246.1696-251.2896H2082.133333v412.842667h-72.260266v-19.831467h-249.514667v20.2752h-70.690133V397.755733z m320.2048 332.117334v-269.858134h-249.514667v269.824h249.514667z m-10.24-74.478934v58.1632h-229.034667v-58.1632h76.049067v-41.0624h-66.7648v-57.5488h66.7648v-22.528h-73.8304v-57.5488h223.709866v57.5488h-83.1488v22.7328h77.482667v57.344h-21.333333c8.738133 8.533333 18.090667 18.056533 26.999466 27.0336l-15.5648 14.0288h18.670934z m-86.493867 0l30.208 0.238934c-8.430933-9.489067-15.9744-18.090667-22.186667-24.849067l18.193067-16.452267h-26.2144v41.0624z m127.658667 219.818667c28.194133 0 37.376 16.861867 37.376 45.294933v68.3008h-31.402667v-63.0784c0-15.735467-5.3248-24.337067-18.773333-24.337066-12.424533 0-20.2752 10.922667-20.2752 25.975466v61.678934h-31.744V877.909333h31.744v16.452267c7.304533-11.4688 19.626667-18.602667 33.0752-19.114667z m-683.758934 0.580267l-37.4784 54.272 40.0384 56.6272h-36.6592l-24.917333-43.008-26.282667 43.008h-36.283733l40.1408-56.797867-36.932267-54.101333h34.816l24.576 41.710933 24.098134-41.710933h34.884266z m84.7872 61.610666v-61.610666h32.0512v111.2064h-32.0512v-17.134934a35.703467 35.703467 0 0 1-32.768 19.6608c-26.760533 0-39.799467-17.2032-39.799466-46.762666v-66.9696h32.0512v64.136533c0 17.2032 7.953067 23.4496 20.855466 23.4496 11.025067 0 19.6608-10.410667 19.6608-25.975467z m107.178667 28.125867c11.1616 0 19.797333-4.437333 22.801067-13.482667l33.928533 4.096c-8.4992 22.766933-26.487467 33.723733-56.149333 33.723734-37.819733 0-59.426133-22.971733-59.426134-56.32 0-36.420267 20.206933-60.279467 55.808-60.279467 42.734933 0 57.821867 25.258667 57.821867 59.460267v8.465066H1522.688c0 14.677333 11.6736 24.337067 26.282667 24.337067z m-1.194667-69.461333c-16.2816 0-25.770667 10.9568-25.770666 23.8592h50.551466a24.132267 24.132267 0 0 0-7.338666-17.3056 23.415467 23.415467 0 0 0-17.442134-6.5536z m184.866134-20.2752l-37.512534 54.272 40.0384 56.6272h-36.625066l-24.917334-43.008-26.3168 43.008H1611.093333l40.1408-56.797867-36.9664-54.101333h34.816l24.576 41.710933 24.098134-41.710933h34.9184z m13.380266 0.546133h32.597334v111.069867h-32.597334v-111.069867z m49.664 74.888533h34.440534v36.181334h-34.440534v-36.181334z m107.008 11.9808a21.265067 21.265067 0 0 0 21.4016-19.899733l34.0992 4.3008c-8.635733 30.139733-25.463467 42.154667-56.5248 42.154667-36.898133 0-58.538667-21.333333-58.538666-58.845867 0-33.792 19.729067-57.685333 58.914133-57.685333a55.3984 55.3984 0 0 1 54.5792 37.137066l-32.904533 4.983467a23.108267 23.108267 0 0 0-21.162667-15.940267c-15.803733 0-26.282667 12.731733-26.282667 32.631467 0 22.186667 10.478933 31.163733 26.4192 31.163733z m-156.672-131.345066h32.597334v28.125866h-32.597334v-28.125866z" fill="#E32416" p-id="6828"></path></svg>