<?xml version="1.0" standalone="no"?><!DOCTYPE svg PUBLIC "-//W3C//DTD SVG 1.1//EN" "http://www.w3.org/Graphics/SVG/1.1/DTD/svg11.dtd"><svg t="1747027971669" class="icon" viewBox="0 0 1024 1024" version="1.1" xmlns="http://www.w3.org/2000/svg" p-id="19525" xmlns:xlink="http://www.w3.org/1999/xlink" width="200" height="200"><path d="M780.3 340l98.6-243.3H593l-51 124.8c91.3 8 176.4 50.3 238.3 118.5zM480.6 221.4l-51-124.7H143.8l97.9 241.8c62.3-67.9 147.6-109.7 238.9-117.1zM511.3 261.3c-179.9 0-325.8 147.4-325.8 329.2 0 181.8 145.9 329.2 325.8 329.2s325.8-147.4 325.8-329.2c0-181.8-145.9-329.2-325.8-329.2zM631 757l-119.7-63.6L391.6 757l22.8-134.7-96.8-95.4 133.8-19.7 59.9-122.5 59.8 122.5 133.8 19.7-96.8 95.4L631 757z" fill="#043562" p-id="19526"></path></svg>