<?xml version="1.0" standalone="no"?><!DOCTYPE svg PUBLIC "-//W3C//DTD SVG 1.1//EN" "http://www.w3.org/Graphics/SVG/1.1/DTD/svg11.dtd"><svg t="1747027826452" class="icon" viewBox="0 0 1024 1024" version="1.1" xmlns="http://www.w3.org/2000/svg" p-id="9238" xmlns:xlink="http://www.w3.org/1999/xlink" width="200" height="200"><path d="M378.457143 20.948571C468.114286-7.268571 566.731429-6.171429 655.714286 24.102857c39.554286 13.451429 77.211429 32.605714 111.211428 56.914286 58.24 41.474286 105.805714 98.434286 133.965715 164.32 19.211429 44.491429 29.074286 92.857143 29.394285 141.291428v2.731429c-0.365714 35.485714-3.325714 71.2-12.72 105.531429-9.965714 37.44-28.194286 72.56-52.697143 102.548571-11.714286 14.845714-25.691429 27.645714-39.52 40.457143-11.714286 10.811429-23.817143 21.177143-36 31.451428-57.291429 50.125714-97.782857 119.028571-113.657142 193.485715-1.268571 8.262857-8.96 14.971429-17.36 14.8-95.234286 0.022857-190.48-0.011429-285.714286 0.011428-4.194286-0.057143-8.582857 0.422857-12.525714-1.337143-5.782857-2.262857-9.885714-7.817143-10.857143-13.885714-7.017143-35.885714-20.102857-70.594286-38.834286-102.011428-18.674286-31.565714-42.822857-59.565714-69.314286-84.811429-16.982857-16.24-35.04-31.291429-52.045714-47.497143-8.788571-8.388571-17.931429-16.548571-25.12-26.422857C117.291429 541.828571 92.445714 465.531429 94.777143 389.714286c-0.125714-39.177143 5.954286-78.377143 18.308571-115.554286 20.674286-62.628571 58.651429-119.085714 107.508572-163.234286 45.222857-41.04 99.634286-71.702857 157.862857-89.977143m-37.257143 275.68c-12.08 8.617143-17.131429 25.497143-11.805714 39.337143 2.102857 6.308571 6.56 11.371429 11.314285 15.862857 45.851429 45.794286 91.622857 91.668571 137.508572 137.44 0.102857 65.851429-0.011429 131.702857 0.057143 197.554286-0.194286 13.622857 8.731429 26.72 21.394285 31.68 10.731429 4.411429 23.68 2.88 33.005715-4.057143 10.594286-7.348571 15.348571-20.708571 14.148571-33.268571-0.011429-63.885714 0.022857-127.771429-0.022857-191.657143 47.131429-47.291429 94.445714-94.4 141.588571-141.68 11.108571-11.222857 12.628571-30.308571 3.405715-43.12-8.548571-12.902857-26.365714-18.342857-40.662857-12.457143-6.845714 2.422857-11.977143 7.714286-16.902858 12.8-40.514286 40.548571-81.097143 81.017143-121.554285 121.611429-42.434286-42.091429-84.537143-84.514286-126.868572-126.72-11.405714-11.885714-31.577143-13.382857-44.605714-3.325715zM352.651429 947.314286c7.028571-22.628571 29.348571-39.28 53.062857-39.462857 70.102857-0.102857 140.217143-0.011429 210.32-0.045715 8.651429-0.137143 17.348571 1.508571 25.222857 5.142857 19.554286 8.674286 33.188571 29.085714 33.474286 50.514286 1.108571 18.937143-7.817143 38.08-23.188572 49.234286-8.285714 6.388571-18.445714 9.542857-28.628571 11.302857H403.302857c-18.342857-1.634286-35.874286-11.805714-45.257143-27.805714-8.8-14.48-10.468571-32.822857-5.394285-48.88z" p-id="9239" fill="#043562"></path></svg>