<?xml version="1.0" standalone="no"?><!DOCTYPE svg PUBLIC "-//W3C//DTD SVG 1.1//EN" "http://www.w3.org/Graphics/SVG/1.1/DTD/svg11.dtd"><svg t="1747027738458" class="icon" viewBox="0 0 1024 1024" version="1.1" xmlns="http://www.w3.org/2000/svg" p-id="4818" xmlns:xlink="http://www.w3.org/1999/xlink" width="200" height="200"><path d="M512 0.097271A360.925712 360.925712 0 0 0 142.883066 351.807858a342.495463 342.495463 0 0 0 127.987841 265.702758 70.649288 70.649288 0 0 1 25.597568 54.778797v29.693179a70.137337 70.137337 0 0 0 70.137337 70.137337H654.834431a70.137337 70.137337 0 0 0 70.649288-70.137337v-29.693179a70.649288 70.649288 0 0 1 25.597568-54.778797 342.495463 342.495463 0 0 0 127.987841-265.702758A360.925712 360.925712 0 0 0 512 0.097271z m145.906139 814.514621h-291.812278a41.980012 41.980012 0 1 0 0 83.448072h291.812278a41.980012 41.980012 0 1 0 0-83.448072z m-65.017823 125.428084H431.111684a41.980012 41.980012 0 1 0 0 83.448073h161.776632a41.980012 41.980012 0 1 0 0-83.448073z m0 0" p-id="4819" fill="#043562"></path></svg>