<?xml version="1.0" standalone="no"?><!DOCTYPE svg PUBLIC "-//W3C//DTD SVG 1.1//EN" "http://www.w3.org/Graphics/SVG/1.1/DTD/svg11.dtd"><svg t="1747027679514" class="icon" viewBox="0 0 1024 1024" version="1.1" xmlns="http://www.w3.org/2000/svg" p-id="3696" xmlns:xlink="http://www.w3.org/1999/xlink" width="200" height="200"><path d="M515.413333 474.453333c75.093333 0 138.24-61.44 138.24-138.24s-61.44-138.24-138.24-138.24-138.24 61.44-138.24 138.24 61.44 138.24 138.24 138.24z m87.04 23.893334l-87.04 100.693333-85.333333-100.693333c-90.453333 40.96-155.306667 141.653333-155.306667 261.12 0 17.066667 1.706667 32.426667 3.413334 47.786666 51.2 64.853333 138.24 107.52 237.226666 107.52s186.026667-42.666667 237.226667-107.52c1.706667-15.36 3.413333-32.426667 3.413333-47.786666 1.706667-119.466667-63.146667-220.16-153.6-261.12z m97.28-162.133334v8.533334c18.773333 11.946667 40.96 18.773333 66.56 18.773333 69.973333 0 126.293333-56.32 126.293334-126.293333 0-69.973333-56.32-128-126.293334-128-58.026667 0-107.52 40.96-122.88 93.866666 34.133333 34.133333 56.32 80.213333 56.32 133.12z m-443.733333 27.306667c27.306667 0 52.906667-8.533333 73.386667-23.893333v-3.413334c0-49.493333 18.773333-93.866667 51.2-126.293333-11.946667-58.026667-63.146667-100.693333-124.586667-100.693333-69.973333 0-128 56.32-128 128 0 68.266667 58.026667 126.293333 128 126.293333z" fill="#043562" p-id="3697"></path><path d="M846.506667 385.706667l-80.213334 93.866666-75.093333-87.04c-8.533333 29.013333-25.6 54.613333-46.08 75.093334 97.28 54.613333 160.426667 167.253333 160.426667 293.546666v8.533334c75.093333-8.533333 141.653333-46.08 180.906666-95.573334 1.706667-15.36 3.413333-29.013333 3.413334-44.373333 0-112.64-59.733333-206.506667-143.36-244.053333z m-460.8 81.92c-22.186667-22.186667-40.96-51.2-49.493334-81.92L256 479.573333l-80.213333-93.866666C93.866667 423.253333 34.133333 518.826667 34.133333 628.053333c0 15.36 1.706667 30.72 3.413334 44.373334 42.666667 52.906667 110.933333 90.453333 189.44 97.28v-10.24c0-124.586667 61.44-235.52 158.72-291.84z" fill="#043562" p-id="3698"></path></svg>